<?xml version="1.0" encoding="UTF-8" standalone="no"?>
<!DOCTYPE svg PUBLIC "-//W3C//DTD SVG 1.1//EN" "http://www.w3.org/Graphics/SVG/1.1/DTD/svg11.dtd">
<svg width="100%" height="100%" viewBox="0 0 32 15" version="1.1" xmlns="http://www.w3.org/2000/svg" xmlns:xlink="http://www.w3.org/1999/xlink" xml:space="preserve" xmlns:serif="http://www.serif.com/" style="fill-rule:evenodd;clip-rule:evenodd;stroke-linejoin:round;stroke-miterlimit:2;">
    <g transform="matrix(1,0,0,1,-41.3415,-19.6196)">
        <g transform="matrix(1.75253,0,0,1,-35.8596,0)">
            <path d="M60.784,26.984C61.043,26.984 61.253,27.353 61.253,27.807C61.253,28.261 61.043,28.63 60.784,28.63L58.662,28.237L54.616,28.251C54.179,28.253 53.642,28.314 53.161,28.292C52.911,28.281 52.675,28.248 52.469,28.18C51.363,27.818 50.516,27.376 49.554,27.097C48.989,26.933 48.382,26.828 47.652,26.833C47.374,26.833 47.148,26.438 47.148,25.95C47.148,25.463 47.374,25.067 47.652,25.067C48.446,25.072 49.106,25.196 49.72,25.382C50.688,25.675 51.539,26.128 52.651,26.506C52.864,26.578 53.118,26.599 53.382,26.602C53.802,26.607 54.245,26.566 54.616,26.568L58.662,26.582L60.784,26.984Z" style="fill:white;"/>
        </g>
        <path d="M43.785,26.943C43.768,26.947 43.735,26.919 43.718,26.908L43.785,26.943ZM52.028,22.276C52.033,22.424 51.615,22.522 51.553,22.568C51.08,22.926 50.619,23.251 50.142,23.556C49.662,23.862 49.167,24.144 48.625,24.414C47.839,24.805 47.049,25.253 46.242,25.633C45.972,25.76 45.701,25.878 45.428,25.986L45.834,26.199C46.295,26.499 46.742,26.832 47.178,27.182C47.806,27.686 48.413,28.224 49.014,28.74L50.49,30.058L51.701,30.951C51.781,31.038 52.139,31.252 52.071,31.394C52.318,31.51 52.489,31.761 52.489,32.052C52.489,32.452 52.165,32.777 51.764,32.777C51.575,32.778 51.362,32.711 51.159,32.554C50.964,32.402 50.75,32.08 50.634,31.959L49.589,31.26L48.015,29.926C47.418,29.432 46.814,28.917 46.191,28.434C45.79,28.123 45.381,27.825 44.96,27.559L43.785,26.943C43.789,26.942 43.793,26.938 43.794,26.931C43.836,26.711 43.114,26.797 42.946,26.688C42.633,26.485 42.53,26.207 42.533,25.95C42.534,25.8 42.61,25.375 43.104,25.132C43.485,24.944 44.527,24.633 44.61,24.606C45.058,24.46 45.502,24.276 45.943,24.078C46.638,23.764 47.325,23.416 48.006,23.109C48.512,22.882 48.976,22.643 49.425,22.381C49.882,22.114 50.325,21.825 50.781,21.507C50.918,21.411 51.507,21.025 51.779,20.988C52.066,20.949 52.278,21.044 52.416,21.187C52.665,21.437 52.665,21.842 52.416,22.092C52.307,22.2 52.17,22.261 52.028,22.276ZM44.092,26.306C43.9,26.374 43.776,26.461 43.833,26.572C43.941,26.779 44.035,26.546 44.092,26.306ZM43.976,25.4C43.881,25.203 43.773,25.077 43.722,25.274C43.694,25.38 43.829,25.401 43.976,25.4ZM43.718,26.908L43.712,26.905C43.714,26.906 43.716,26.907 43.718,26.908Z" style="fill:white;"/>
    </g>
</svg>
