<?xml version="1.0" encoding="UTF-8" standalone="no"?>
<!DOCTYPE svg PUBLIC "-//W3C//DTD SVG 1.1//EN" "http://www.w3.org/Graphics/SVG/1.1/DTD/svg11.dtd">
<svg width="100%" height="100%" viewBox="0 0 73 28" version="1.1" xmlns="http://www.w3.org/2000/svg" xmlns:xlink="http://www.w3.org/1999/xlink" xml:space="preserve" xmlns:serif="http://www.serif.com/" style="fill-rule:evenodd;clip-rule:evenodd;stroke-linecap:round;stroke-linejoin:round;stroke-miterlimit:1.5;">
    <g transform="matrix(1,0,0,1,-1.70344,-41.7679)">
        <path d="M4.212,43.592C4.78,43.308 5.339,43.161 5.804,42.928C6.151,42.755 7.016,42.928 7.395,42.928C8.077,42.928 8.992,42.764 9.65,42.928C10.448,43.128 11.154,43.296 11.972,43.459C15.74,44.213 19.486,44.719 23.379,44.719C24.263,44.719 25.149,44.522 26.032,44.454C27.962,44.305 29.836,44.128 31.735,43.857C34.113,43.518 36.566,43.334 38.898,42.796C40.863,42.342 42.953,42.614 44.933,42.332C46.726,42.075 48.515,42.647 50.173,43.061C52.34,43.603 54.56,44.3 56.833,44.625C59.421,44.994 62.401,43.701 64.564,45.183C65.194,45.615 68.642,45.582 69.008,45.051C69.249,44.7 70.435,44.587 70.865,44.587M6.135,66.207C5.154,66.207 3.899,65.43 3.35,64.881C3.3,64.831 3.3,63.737 3.35,63.687C3.627,63.41 3.603,62.77 3.88,62.493C4.221,62.153 4.343,61.173 4.477,60.636C4.766,59.482 4.941,58.37 4.941,57.121C4.941,56.742 5.034,56.23 4.941,55.861C4.385,53.637 2.748,51.727 2.289,49.428C1.991,47.94 2.499,45.371 3.416,44.454C3.637,44.232 3.865,43.658 4.212,43.658M6.268,66.141C6.631,66.347 7.053,66.274 7.462,66.274C8.019,66.274 8.653,66.341 9.186,66.207C9.746,66.067 10.301,65.778 10.91,65.677C13.74,65.205 16.661,63.947 19.598,64.682C21.167,65.074 22.389,65.99 23.705,66.648C24.202,66.897 24.638,67.003 25.169,67.268C26.238,67.802 27.535,67.91 28.684,68.197C28.913,68.254 29.185,68.14 29.414,68.197C30.263,68.409 31.578,68.448 32.332,68.197C33.582,67.78 34.626,67.083 35.847,66.473C36.156,66.318 36.593,66.195 36.842,66.008C37.287,65.675 37.762,65.281 38.367,65.08C39.037,64.857 39.597,64.631 40.158,64.35C40.47,64.194 40.948,64.386 41.285,64.218C41.742,63.989 42.819,64.151 43.408,64.151C43.562,64.151 43.937,64.084 44.071,64.151C44.231,64.231 44.45,64.142 44.602,64.218C45.522,64.678 46.738,64.595 47.719,64.947C48.682,65.293 49.579,65.445 50.57,65.61C51.033,65.687 51.49,65.929 51.963,66.008C53.365,66.242 54.779,66.406 56.208,66.406C56.959,66.406 58.149,66.644 58.861,66.406C60.281,65.933 61.22,65.345 62.906,65.345C64.871,65.345 66.733,65.61 68.676,65.61C69.354,65.61 70.3,65.86 70.931,65.544C71.967,65.026 72.603,63.664 71.793,63.09C71.6,62.953 71.287,60.535 71.528,59.973C71.837,59.254 72.738,56.635 73.053,56.193C73.52,55.538 73.833,54.105 73.451,53.407C73.044,52.662 71.39,49.055 71.727,48.499C72.186,47.743 72.619,44.792 71.793,44.719C71.505,44.694 71.209,44.653 70.997,44.653" style="fill:none;stroke:white;stroke-width:1px;"/>
    </g>
</svg>
