<?xml version="1.0" encoding="UTF-8" standalone="no"?>
<!DOCTYPE svg PUBLIC "-//W3C//DTD SVG 1.1//EN" "http://www.w3.org/Graphics/SVG/1.1/DTD/svg11.dtd">
<svg width="100%" height="100%" viewBox="0 0 805 91" version="1.1" xmlns="http://www.w3.org/2000/svg" xmlns:xlink="http://www.w3.org/1999/xlink" xml:space="preserve" xmlns:serif="http://www.serif.com/" style="fill-rule:evenodd;clip-rule:evenodd;stroke-linejoin:round;stroke-miterlimit:2;">
    <g transform="matrix(1,0,0,1,-1020,-311.928)">
        <g transform="matrix(1.32836,0,0,1.32836,991.087,-120.789)">
            <g transform="matrix(2.35523,0,0,0.463113,143.549,596.955)">
                <g transform="matrix(0.567637,0,0,0.567637,-175.956,-721.586)">
                    <path d="M255.54,494.614C255.457,494.613 255.301,494.508 255.073,494.297C254.845,494.086 254.565,493.664 254.233,493.031C250.832,486.069 247.638,476.26 244.651,463.602C241.664,450.944 238.906,436.914 236.375,421.514C235.587,416.662 234.861,411.757 234.197,406.799C233.534,401.841 232.901,396.989 232.299,392.243C231.698,387.496 231.065,383.224 230.402,379.426L229.406,474.361C229.365,479.635 228.929,483.854 228.099,487.019C227.27,490.183 226.046,491.765 224.428,491.765C222.561,491.765 221.161,490.078 220.228,486.702C219.295,483.327 218.849,478.369 218.89,471.829L221.193,256.961C221.234,250.21 221.825,245.622 222.966,243.196C224.107,240.769 225.341,239.556 226.668,239.556C228.079,239.556 229.282,240.769 230.277,243.196C231.273,245.622 231.75,250.21 231.708,256.961L231.024,329.744C231.729,326.58 232.642,322.413 233.762,317.244C234.882,312.076 236.126,306.485 237.495,300.473C238.864,294.46 240.243,288.237 241.633,281.802C243.023,275.368 244.36,269.303 245.646,263.606C246.932,257.91 248.052,252.953 249.007,248.733C249.504,246.202 250.064,244.936 250.687,244.936C251.558,244.936 252.418,246.413 253.269,249.366C254.119,252.32 254.824,256.012 255.384,260.442C255.944,264.872 256.224,269.408 256.224,274.049C256.224,275.526 256.173,277.003 256.069,278.479C255.965,279.956 255.768,281.328 255.478,282.593C253.818,289.977 252.294,296.675 250.904,302.688C249.515,308.7 248.187,314.396 246.922,319.776C245.657,325.156 244.35,330.641 243.002,336.231C241.654,341.822 240.171,347.887 238.553,354.427C239.963,359.701 241.208,365.925 242.286,373.097C243.365,380.27 244.215,385.966 244.838,390.186C246.082,398.202 247.399,405.744 248.789,412.812C250.178,419.879 251.672,426.103 253.269,431.482C254.866,436.862 256.556,441.45 258.34,445.248C259.128,446.724 259.668,448.57 259.958,450.785C260.248,453.001 260.393,455.585 260.393,458.538C260.393,464.024 260.176,469.614 259.74,475.31C259.305,481.006 258.724,485.647 257.998,489.234C257.272,492.82 256.453,494.613 255.54,494.614Z" style="fill:white;fill-rule:nonzero;"/>
                </g>
                <g transform="matrix(0.567637,0,0,0.567637,-175.956,-721.586)">
                    <path d="M270.536,259.493C270.826,253.586 271.49,249.525 272.527,247.309C273.564,245.094 274.622,243.987 275.7,243.987C277.733,243.987 279.092,245.833 279.776,249.525C280.461,253.216 280.637,258.332 280.305,264.872C280.139,268.459 279.952,273.575 279.745,280.22C279.538,286.865 279.341,294.407 279.154,302.846C278.967,311.285 278.812,319.987 278.687,328.953C278.563,337.919 278.501,346.516 278.501,354.743C278.501,383.857 279.289,406.694 280.865,423.254C282.441,439.815 285.096,448.096 288.83,448.096C291.443,448.096 293.496,445.089 294.99,439.077C296.483,433.064 297.614,424.362 298.381,412.97C299.148,401.578 299.636,387.812 299.843,371.673C300.051,355.535 300.154,337.339 300.154,317.086L300.154,289.081C300.154,281.802 300.165,275.737 300.185,270.885C300.206,266.033 300.217,261.813 300.217,258.227C300.258,252.32 300.777,248.1 301.772,245.569C302.768,243.037 303.826,241.772 304.946,241.772C306.273,241.772 307.445,243.037 308.461,245.569C309.478,248.1 309.986,252.32 309.986,258.227C309.944,262.024 309.913,267.087 309.892,273.416C309.872,279.745 309.861,286.285 309.861,293.036L309.861,324.681C309.861,340.081 309.747,355.798 309.519,371.832C309.291,387.865 308.783,403.213 307.995,417.875C307.206,432.537 306.045,445.722 304.51,457.431C302.975,469.139 300.943,478.422 298.412,485.278C295.882,492.135 292.708,495.563 288.892,495.563C284.785,495.563 281.404,492.029 278.749,484.962C276.095,477.894 274.02,468.032 272.527,455.374C271.034,442.716 269.997,428.001 269.416,411.229C268.835,394.458 268.545,376.473 268.545,357.275C268.545,345.039 268.659,332.592 268.887,319.934C269.115,307.276 269.385,295.568 269.696,284.808C270.007,274.049 270.287,265.611 270.536,259.493Z" style="fill:white;fill-rule:nonzero;"/>
                </g>
                <g transform="matrix(0.567637,0,0,0.567637,-175.956,-721.586)">
                    <path d="M359.889,272.783C360.179,274.26 360.387,276.001 360.511,278.005C360.636,280.009 360.698,282.066 360.698,284.176C360.698,291.348 360.221,297.255 359.267,301.897C358.313,306.538 357.193,308.859 355.907,308.859C355.492,308.859 355.119,308.489 354.787,307.751C354.455,307.013 354.102,305.589 353.729,303.479C352.401,296.306 350.908,291.454 349.249,288.922C347.59,286.391 345.93,285.125 344.271,285.125C342.612,285.125 340.9,286.865 339.137,290.346C337.374,293.827 335.757,299.154 334.284,306.327C332.811,313.5 331.629,322.519 330.737,333.383C329.845,344.248 329.399,356.959 329.399,371.515C329.399,384.595 329.69,395.829 330.271,405.217C330.851,414.605 331.64,422.252 332.635,428.159C333.631,434.066 334.751,438.391 335.995,441.134C337.24,443.876 338.526,445.248 339.853,445.248C341.305,445.248 342.757,443.876 344.209,441.134C345.661,438.391 347.019,433.592 348.284,426.735C349.55,419.879 350.576,410.438 351.364,398.413C349.913,396.726 348.398,395.513 346.822,394.774C345.246,394.036 343.773,393.983 342.404,394.616C341.658,394.827 340.983,393.456 340.382,390.502C339.78,387.549 339.48,381.853 339.48,373.414C339.48,366.452 339.76,361.231 340.32,357.75C340.88,354.269 341.626,351.948 342.56,350.788C343.493,349.628 344.541,349.047 345.702,349.047C347.03,349.047 348.43,349.469 349.902,350.313C351.375,351.157 352.806,352.106 354.196,353.161C355.585,354.216 356.778,355.218 357.773,356.167C358.769,357.117 359.433,357.908 359.765,358.541C360.968,360.018 361.694,362.549 361.942,366.136C362.191,369.722 362.316,373.519 362.316,377.528C362.316,380.27 362.243,384.015 362.098,388.762C361.953,393.508 361.797,397.253 361.631,399.996C360.677,417.506 359.173,433.275 357.12,447.305C355.067,461.334 352.609,472.409 349.747,480.532C346.884,488.654 343.711,492.715 340.226,492.715C336.576,492.715 333.423,489.076 330.768,481.797C328.114,474.519 325.915,465.026 324.173,453.317C322.43,441.608 321.144,428.845 320.315,415.027C319.485,401.209 319.07,387.76 319.07,374.68C319.07,356.959 319.713,340.081 320.999,324.048C322.285,308.015 324.079,293.669 326.382,281.011C328.684,268.353 331.37,258.385 334.44,251.107C337.509,243.828 340.786,240.189 344.271,240.189C346.843,240.189 349.498,242.457 352.236,246.993C354.973,251.529 357.525,260.126 359.889,272.783Z" style="fill:white;fill-rule:nonzero;"/>
                </g>
                <g transform="matrix(0.567637,0,0,0.567637,-175.956,-721.586)">
                    <path d="M373.578,263.923C373.62,257.172 374.18,252.583 375.258,250.157C376.337,247.731 377.478,246.518 378.681,246.518C379.925,246.518 381.076,247.731 382.134,250.157C383.192,252.583 383.7,257.172 383.658,263.923C383.451,298.943 383.181,334.807 382.85,371.515C382.518,408.223 382.165,443.982 381.792,478.791C381.75,485.331 381.17,490.078 380.05,493.031C378.929,495.985 377.727,497.462 376.441,497.462C375.155,497.462 374.045,495.774 373.112,492.398C372.178,489.023 371.774,482.799 371.898,473.728C372.106,452.209 372.313,429.689 372.52,406.166C372.728,382.644 372.925,358.857 373.112,334.807C373.298,310.757 373.454,287.129 373.578,263.923ZM378.992,288.922C377.54,288.922 376.524,286.865 375.943,282.752C375.362,278.638 375.072,273.1 375.072,266.138C375.072,259.176 375.362,253.691 375.943,249.683C376.524,245.674 377.54,243.67 378.992,243.67C383.14,243.67 386.998,243.828 390.565,244.145C394.133,244.461 397.12,244.831 399.526,245.252C401.019,245.463 402.046,247.362 402.606,250.949C403.166,254.535 403.446,260.02 403.446,267.404C403.446,274.155 403.197,279.745 402.699,284.176C402.201,288.606 401.309,290.715 400.023,290.505C398.281,290.083 396.3,289.766 394.081,289.555C391.862,289.344 389.487,289.186 386.956,289.081C384.426,288.975 381.771,288.922 378.992,288.922ZM380.112,387.971C378.909,388.603 378.038,386.494 377.498,381.642C376.959,376.789 376.648,371.515 376.565,365.819C376.565,359.49 376.866,354.216 377.467,349.997C378.069,345.777 378.95,343.457 380.112,343.035C381.398,342.191 382.787,341.611 384.281,341.294C385.774,340.978 387.236,340.767 388.667,340.662C390.099,340.556 391.385,340.503 392.525,340.503L395.108,340.503C396.435,340.714 397.368,342.982 397.908,347.307C398.447,351.632 398.717,356.853 398.717,362.971C398.717,368.667 398.478,373.889 398.001,378.635C397.524,383.382 396.622,385.65 395.294,385.439L392.681,385.439C391.519,385.439 390.213,385.492 388.761,385.597C387.309,385.703 385.826,385.966 384.312,386.388C382.798,386.81 381.398,387.338 380.112,387.971ZM378.618,493.031C377.457,493.242 376.606,491.027 376.067,486.386C375.528,481.745 375.217,476.47 375.134,470.563C375.092,464.024 375.372,458.697 375.974,454.583C376.575,450.469 377.457,448.307 378.618,448.096C381.605,447.252 384.768,446.619 388.107,446.197C391.447,445.775 394.61,445.564 397.597,445.564C398.924,445.564 399.826,447.674 400.303,451.893C400.78,456.112 401.019,461.281 401.019,467.399C401.019,473.306 400.78,478.633 400.303,483.38C399.826,488.126 398.924,490.5 397.597,490.5C394.61,490.5 391.447,490.711 388.107,491.133C384.768,491.554 381.605,492.187 378.618,493.031Z" style="fill:white;fill-rule:nonzero;"/>
                </g>
                <g transform="matrix(0.567637,0,0,0.567637,-175.956,-721.586)">
                    <path d="M412.841,261.075C412.883,254.324 413.401,249.735 414.397,247.309C415.393,244.883 416.492,243.67 417.695,243.67C418.524,243.67 419.344,244.198 420.153,245.252C420.962,246.307 421.636,248.1 422.175,250.632C422.714,253.164 422.963,256.645 422.922,261.075C422.797,288.922 422.621,318.194 422.393,348.889C422.165,379.585 421.885,410.755 421.553,442.4C422.424,441.767 423.419,441.187 424.539,440.659C425.659,440.132 426.8,439.868 427.962,439.868C429.704,439.868 431.343,440.184 432.877,440.817C434.412,441.45 435.636,442.294 436.549,443.349C437.669,444.826 438.467,447.463 438.944,451.26C439.421,455.057 439.66,459.382 439.66,464.234C439.66,468.454 439.556,472.831 439.349,477.367C439.141,481.903 438.758,485.542 438.198,488.285C437.638,491.027 436.839,491.976 435.802,491.133C434.682,490.078 433.292,489.234 431.633,488.601C429.974,487.968 428.065,487.652 425.908,487.652C425.037,487.652 424.031,487.757 422.89,487.968C421.75,488.179 420.661,488.548 419.624,489.076C418.587,489.603 417.778,490.183 417.197,490.816C415.413,492.926 413.993,492.082 412.935,488.285C411.877,484.487 411.41,477.947 411.535,468.665C411.867,435.332 412.136,400.945 412.344,365.503C412.551,330.061 412.717,295.251 412.841,261.075Z" style="fill:white;fill-rule:nonzero;"/>
                </g>
                <g transform="matrix(0.567637,0,0,0.567637,-175.956,-721.586)">
                    <path d="M477.43,274.682C477.927,277.003 478.446,280.22 478.985,284.334C479.524,288.448 479.794,291.981 479.794,294.935C479.794,299.787 479.524,303.848 478.985,307.118C478.446,310.388 477.824,312.867 477.118,314.555C476.413,316.242 475.749,317.086 475.127,317.086C474.546,317.086 474.038,316.19 473.603,314.396C473.167,312.603 472.618,310.124 471.954,306.96C470.751,300.631 469.444,295.884 468.034,292.72C466.623,289.555 465.171,287.973 463.678,287.973C462.683,287.973 461.749,288.922 460.878,290.821C460.007,292.72 459.322,295.515 458.825,299.207C458.327,302.899 458.078,307.171 458.078,312.023C458.078,317.297 458.482,322.255 459.291,326.896C460.1,331.537 461.521,336.179 463.554,340.82C467.121,348.625 469.983,356.537 472.141,364.553C474.298,372.57 475.884,381.378 476.901,390.977C477.917,400.576 478.425,411.493 478.425,423.729C478.425,434.066 477.99,443.665 477.118,452.526C476.247,461.386 475.034,469.139 473.478,475.785C471.923,482.43 470.129,487.546 468.096,491.133C466.063,494.719 463.906,496.301 461.625,495.879C460.131,495.668 458.648,494.719 457.176,493.031C455.703,491.344 454.303,488.865 452.976,485.595C451.648,482.325 450.466,478.053 449.429,472.779C448.558,468.559 447.884,464.129 447.407,459.488C446.93,454.847 446.691,450.944 446.691,447.779C446.691,442.716 446.94,438.444 447.438,434.963C447.936,431.482 448.547,428.792 449.273,426.894C449.999,424.995 450.673,424.046 451.296,424.046C451.959,424.046 452.509,424.995 452.945,426.894C453.38,428.792 453.764,430.902 454.096,433.223C454.925,438.919 456.045,443.243 457.456,446.197C458.866,449.15 460.256,450.627 461.625,450.627C462.703,450.627 463.709,449.52 464.643,447.305C465.576,445.089 466.323,442.136 466.883,438.444C467.443,434.752 467.723,430.691 467.723,426.261C467.723,420.987 467.526,416.451 467.132,412.653C466.737,408.856 466.094,405.322 465.203,402.052C464.311,398.782 463.097,395.565 461.562,392.401C457.124,382.907 453.702,372.254 451.296,360.44C448.89,348.625 447.687,333.436 447.687,314.871C447.687,300.736 448.413,288.237 449.864,277.372C451.316,266.507 453.245,257.963 455.651,251.74C458.057,245.516 460.671,242.404 463.491,242.404C465.192,242.404 466.862,243.459 468.5,245.569C470.139,247.679 471.715,251.107 473.229,255.853C474.744,260.6 476.144,266.876 477.43,274.682Z" style="fill:white;fill-rule:nonzero;"/>
                </g>
                <g transform="matrix(0.567637,0,0,0.567637,-175.956,-721.586)">
                    <path d="M526.275,270.568C527.105,273.944 527.623,276.95 527.831,279.587C528.038,282.224 528.142,284.492 528.142,286.391C528.142,290.188 527.934,294.196 527.52,298.416C527.105,302.635 526.576,306.169 525.933,309.017C525.29,311.865 524.637,313.289 523.973,313.289C523.517,313.289 523.071,312.603 522.635,311.232C522.199,309.861 521.608,307.804 520.862,305.061C520.405,302.951 519.783,300.736 518.995,298.416C518.207,296.095 517.263,294.091 516.164,292.403C515.064,290.715 513.81,289.872 512.399,289.872C510.906,289.872 509.34,291.559 507.701,294.935C506.063,298.31 504.518,303.584 503.066,310.757C501.614,317.93 500.432,326.949 499.519,337.814C498.606,348.678 498.15,361.705 498.15,376.895C498.15,389.342 498.451,399.996 499.052,408.856C499.654,417.717 500.473,424.942 501.51,430.533C502.547,436.123 503.74,440.237 505.088,442.874C506.436,445.511 507.857,446.83 509.35,446.83C510.927,446.83 512.399,445.67 513.768,443.349C515.137,441.028 516.454,437.706 517.719,433.381C518.985,429.056 520.198,423.94 521.359,418.033C521.691,416.345 522.034,415.238 522.386,414.71C522.739,414.183 523.06,413.919 523.351,413.919C524.139,413.919 524.896,415.449 525.622,418.508C526.348,421.567 526.949,425.1 527.426,429.109C527.903,433.117 528.142,436.809 528.142,440.184C528.142,444.404 527.976,447.99 527.644,450.944C527.312,453.897 526.856,456.534 526.275,458.855C523.496,471.091 520.675,480.057 517.813,485.753C514.95,491.449 511.922,494.297 508.728,494.297C505.243,494.297 502.174,491.08 499.519,484.645C496.864,478.211 494.645,469.509 492.861,458.538C491.077,447.568 489.739,435.227 488.848,421.514C487.956,407.801 487.51,393.561 487.51,378.794C487.51,361.494 488.111,344.828 489.314,328.795C490.517,312.761 492.208,298.468 494.385,285.916C496.563,273.364 499.135,263.395 502.101,256.012C505.067,248.628 508.272,244.936 511.715,244.936C513.457,244.936 515.189,245.938 516.91,247.942C518.632,249.946 520.291,252.847 521.888,256.645C523.485,260.442 524.948,265.083 526.275,270.568Z" style="fill:white;fill-rule:nonzero;"/>
                </g>
                <g transform="matrix(0.567637,0,0,0.567637,-175.956,-721.586)">
                    <path d="M538.72,259.809C538.761,253.058 539.29,248.417 540.307,245.885C541.323,243.354 542.453,242.088 543.698,242.088C544.61,242.088 545.492,242.615 546.342,243.67C547.193,244.725 547.898,246.518 548.458,249.05C549.018,251.581 549.277,255.168 549.236,259.809L547.431,473.095C547.39,477.525 547.099,481.006 546.56,483.538C546.021,486.069 545.326,487.863 544.475,488.917C543.625,489.972 542.744,490.5 541.831,490.5C540.587,490.5 539.446,489.234 538.409,486.702C537.372,484.171 536.874,479.635 536.915,473.095L538.72,259.809ZM542.764,384.173C541.561,384.595 540.68,382.855 540.12,378.952C539.56,375.049 539.28,369.827 539.28,363.288C539.28,355.482 539.601,349.68 540.244,345.883C540.887,342.086 541.748,339.976 542.827,339.554C545.398,338.499 548.116,337.708 550.978,337.181C553.84,336.653 556.723,336.284 559.627,336.073C562.531,335.862 565.331,335.862 568.027,336.073C570.724,336.284 573.212,336.811 575.494,337.655C576.904,338.077 577.921,339.923 578.543,343.193C579.165,346.463 579.476,351.474 579.476,358.224C579.476,367.507 579.072,374.047 578.263,377.844C577.454,381.642 576.178,383.224 574.436,382.591C571.491,381.747 568.774,381.167 566.285,380.85C563.796,380.534 561.348,380.481 558.942,380.692C556.537,380.903 554.027,381.272 551.413,381.8C548.8,382.327 545.917,383.118 542.764,384.173ZM567.28,261.391C567.405,253.797 568.038,248.786 569.178,246.36C570.319,243.934 571.574,242.721 572.943,242.721C574.561,242.721 575.805,244.25 576.676,247.309C577.547,250.368 577.941,255.379 577.858,262.341C577.527,279.851 577.236,297.361 576.987,314.871C576.738,332.381 576.541,350.419 576.396,368.984C576.251,387.549 576.178,407.274 576.178,428.159C576.178,437.02 576.199,445.722 576.241,454.266C576.282,462.81 576.324,470.247 576.365,476.576C576.365,483.116 575.857,487.652 574.841,490.183C573.824,492.715 572.652,493.981 571.325,493.981C569.998,493.981 568.753,492.715 567.592,490.183C566.43,487.652 565.849,483.116 565.849,476.576C565.808,470.247 565.777,462.916 565.756,454.583C565.735,446.25 565.725,437.653 565.725,428.792C565.725,399.679 565.86,370.83 566.129,342.244C566.399,313.658 566.783,286.707 567.28,261.391Z" style="fill:white;fill-rule:nonzero;"/>
                </g>
                <g transform="matrix(0.567637,0,0,0.567637,-175.956,-721.586)">
                    <path d="M596.899,476.26C596.526,482.588 595.851,487.177 594.877,490.025C593.902,492.873 592.419,494.297 590.428,494.297C588.768,494.297 587.607,492.609 586.943,489.234C586.279,485.858 585.948,482.272 585.948,478.475C585.948,474.466 586.072,470.458 586.321,466.45C586.57,462.441 586.839,458.433 587.13,454.425C588.54,436.071 589.961,418.35 591.392,401.261C592.823,384.173 594.254,367.665 595.686,351.737C597.117,335.809 598.537,320.356 599.948,305.378C601.358,290.399 602.769,275.948 604.179,262.024C604.926,254.218 605.828,248.575 606.886,245.094C607.944,241.613 609.178,239.873 610.588,239.873C612.372,239.873 613.886,241.666 615.13,245.252C616.375,248.839 617.205,253.586 617.619,259.493C617.785,261.18 618.148,266.296 618.708,274.84C619.268,283.384 619.984,294.144 620.855,307.118C621.726,320.092 622.67,334.069 623.686,349.047C624.703,364.026 625.75,378.846 626.828,393.508C627.907,408.17 628.934,421.619 629.909,433.855C630.883,446.091 631.723,455.69 632.429,462.652C632.678,464.762 632.895,467.241 633.082,470.089C633.269,472.937 633.362,475.205 633.362,476.892C633.362,481.534 632.875,485.806 631.9,489.709C630.925,493.611 629.608,495.563 627.949,495.563C626.828,495.563 625.823,494.877 624.931,493.506C624.039,492.135 623.323,488.706 622.784,483.221C621.498,470.142 620.295,455.374 619.175,438.919C618.055,422.463 617.008,405.639 616.033,388.445C615.058,371.252 614.104,354.849 613.17,339.238C612.237,323.626 611.335,310.019 610.464,298.416C608.431,320.567 606.606,342.138 604.988,363.129C603.37,384.12 601.908,404.109 600.601,423.096C599.295,442.083 598.06,459.804 596.899,476.26ZM596.028,405.059C596.028,399.996 596.308,395.882 596.868,392.717C597.428,389.553 598.06,387.179 598.766,385.597C599.471,384.015 600.052,383.013 600.508,382.591C601.421,381.536 602.509,380.534 603.775,379.585C605.04,378.635 606.575,378.108 608.379,378.002C610.184,377.897 612.33,378.583 614.819,380.059C615.193,380.27 615.887,380.218 616.904,379.901C617.92,379.585 619.04,379.163 620.264,378.635C621.488,378.108 622.628,377.528 623.686,376.895C624.744,376.262 625.501,375.84 625.957,375.629C627.119,374.996 628.063,376.315 628.789,379.585C629.514,382.855 629.877,387.76 629.877,394.299C629.877,400.207 629.463,405.164 628.633,409.173C627.803,413.181 626.735,416.398 625.428,418.824C624.122,421.25 622.794,422.938 621.446,423.887C620.098,424.837 618.905,425.311 617.868,425.311C615.504,425.311 613.316,425.259 611.304,425.153C609.292,425.048 607.311,425.259 605.361,425.786C603.412,426.313 601.275,427.316 598.952,428.792C598.33,429.003 597.687,426.63 597.023,421.672C596.36,416.715 596.028,411.177 596.028,405.059Z" style="fill:white;fill-rule:nonzero;"/>
                </g>
                <g transform="matrix(0.567637,0,0,0.567637,-175.956,-721.586)">
                    <path d="M641.575,474.361C641.741,465.711 641.866,455.374 641.949,443.349C642.032,431.324 642.084,418.771 642.104,405.692C642.125,392.612 642.136,380.165 642.136,368.351C642.136,360.123 642.146,352.95 642.167,346.832C642.187,340.714 642.218,334.913 642.26,329.428C642.301,323.943 642.384,318.194 642.509,312.181C642.633,306.169 642.778,299.154 642.944,291.137C642.613,288.606 642.343,285.652 642.136,282.277C641.928,278.901 641.824,274.577 641.824,269.303C641.824,263.395 642.125,258.596 642.727,254.904C643.328,251.212 644.044,249.472 644.873,249.683C646.491,249.894 648.399,250.157 650.598,250.474C652.796,250.79 655.078,251.054 657.443,251.265C659.807,251.476 662.037,251.529 664.132,251.423C666.226,251.318 667.979,251.159 669.389,250.949C670.095,250.738 670.727,252.003 671.287,254.746C671.847,257.488 672.127,262.763 672.127,270.568C672.127,277.741 671.899,283.068 671.443,286.549C670.987,290.03 670.406,292.403 669.701,293.669C668.995,294.935 668.29,295.673 667.585,295.884C666.548,296.095 665.583,296.306 664.692,296.517C663.8,296.728 662.835,296.781 661.798,296.675C660.761,296.57 659.568,296.359 658.22,296.042C656.872,295.726 655.265,295.357 653.398,294.935C653.191,305.694 653.014,315.557 652.869,324.523C652.724,333.489 652.651,342.297 652.651,350.946C653.937,351.579 655.265,352.001 656.634,352.212C658.003,352.423 659.351,352.476 660.678,352.37C662.006,352.265 663.25,352.001 664.412,351.579C665.324,351.157 666.081,352.528 666.683,355.693C667.284,358.857 667.585,363.393 667.585,369.3C667.626,378.794 667.326,385.175 666.683,388.445C666.04,391.715 665.386,393.561 664.723,393.983C662.649,394.616 660.668,394.932 658.78,394.932C656.893,394.932 654.85,394.405 652.651,393.35C652.651,413.814 652.631,430.48 652.589,443.349C652.548,456.218 652.402,466.555 652.154,474.361C651.988,480.268 651.552,484.751 650.847,487.81C650.142,490.869 648.835,492.398 646.927,492.398C645.35,492.398 644.168,491.554 643.38,489.867C642.592,488.179 642.084,485.964 641.855,483.221C641.627,480.479 641.534,477.525 641.575,474.361Z" style="fill:white;fill-rule:nonzero;"/>
                </g>
            </g>
        </g>
    </g>
</svg>
