<?xml version="1.0" encoding="UTF-8" standalone="no"?>
<!DOCTYPE svg PUBLIC "-//W3C//DTD SVG 1.1//EN" "http://www.w3.org/Graphics/SVG/1.1/DTD/svg11.dtd">
<svg width="100%" height="100%" viewBox="0 0 381 381" version="1.1" xmlns="http://www.w3.org/2000/svg" xmlns:xlink="http://www.w3.org/1999/xlink" xml:space="preserve" xmlns:serif="http://www.serif.com/" style="fill-rule:evenodd;clip-rule:evenodd;stroke-linejoin:round;stroke-miterlimit:2;">
    <g transform="matrix(1,0,0,1,-544.54,-37.2973)">
        <g id="_001E24" serif:id="001E24" transform="matrix(1.64512,0,0,1.64512,583.04,-267.76)">
            <g transform="matrix(0.760614,0,0,0.752852,-631.31,-615.377)">
                <rect x="799.232" y="1063.7" width="303.759" height="306.891" style="fill:rgb(0,30,36);"/>
            </g>
            <g id="Kugelschaf-1-Geometrie" serif:id="Kugelschaf 1 Geometrie" transform="matrix(0.729844,0,0,0.743102,-612.458,-600.293)">
                <path d="M1017.16,1123.27C1026.46,1116.67 1040.65,1120.04 1050.97,1135.51C1056.11,1143.21 1055.99,1147.51 1052.26,1149.57C1061.52,1147.87 1071.37,1146.1 1079.54,1145.49C1084.93,1145.08 1089.68,1145.15 1093.33,1145.84C1096.88,1146.5 1099.63,1147.79 1101.54,1149.43C1103.11,1150.78 1104.43,1152.8 1105.37,1155.16C1106.15,1157.13 1106.66,1159.39 1107.2,1160.99C1111.03,1172.27 1102.97,1180.09 1088.64,1183.06C1076.63,1185.55 1060.34,1184.95 1051.3,1183.92C1058.97,1197.44 1063.34,1213.02 1063.34,1229.58C1063.34,1281.5 1020.42,1323.65 967.556,1323.65C914.693,1323.65 871.775,1281.5 871.775,1229.58C871.775,1214.45 875.418,1200.16 881.888,1187.49C874.36,1191.11 863.592,1194.38 853.676,1195.8C844.785,1197.08 836.551,1196.74 831.406,1194.6C826.815,1192.69 823.985,1189.52 822.993,1185.37C822.206,1182.08 822.62,1177.71 825.694,1172.32C830.959,1163.06 840.515,1158.16 851.845,1156.11C861.889,1154.3 873.379,1154.76 883.374,1155.37C883.02,1149.25 889.178,1144.86 901.258,1146.77C880.349,1142.86 901.028,1118.94 925.167,1127.62C919.781,1122.61 915.996,1112.2 928.117,1109.26C945.409,1105.06 954.507,1111.84 960.48,1120.4C972.986,1107.03 986.633,1097.59 1010.87,1104.14C1018.9,1106.31 1026.56,1115.03 1017.16,1123.27C1016.61,1123.65 1016.08,1124.07 1015.57,1124.53C1015.56,1124.54 1015.54,1124.55 1015.52,1124.57C1015.48,1124.56 1015.31,1124.77 1015.5,1124.59C1015.53,1124.57 1015.55,1124.55 1015.57,1124.53C1016.15,1124.11 1016.68,1123.69 1017.16,1123.27ZM1012.45,1221.77C1013.68,1217.93 1015.28,1212.19 1015.61,1205.37C1016.25,1191.88 1009.37,1184.4 999.75,1184.41C987.717,1184.42 984.874,1196.1 984.238,1203.57C983.907,1207.45 984.127,1215.23 985.132,1221.67C984.283,1221.75 983.809,1221.81 983.809,1221.81C981.797,1222.04 980.355,1223.83 980.592,1225.81C980.828,1227.79 982.654,1229.2 984.667,1228.97C984.667,1228.97 1002.7,1226.84 1014.38,1229.45C1016.35,1229.89 1018.32,1228.67 1018.77,1226.73C1019.22,1224.79 1017.98,1222.86 1016,1222.41C1014.87,1222.16 1013.68,1221.95 1012.45,1221.77ZM945.392,1221.67C946.397,1215.23 946.616,1207.45 946.286,1203.57C945.65,1196.1 942.807,1184.42 930.773,1184.41C921.152,1184.4 914.277,1191.88 914.917,1205.37C915.241,1212.19 916.849,1217.93 918.073,1221.77C916.846,1221.95 915.656,1222.16 914.521,1222.41C912.545,1222.86 911.305,1224.79 911.754,1226.73C912.204,1228.67 914.172,1229.89 916.148,1229.45C927.819,1226.84 945.857,1228.97 945.857,1228.97C947.869,1229.2 949.695,1227.79 949.932,1225.81C950.169,1223.83 948.727,1222.04 946.715,1221.81C946.715,1221.81 946.24,1221.75 945.392,1221.67Z" style="fill:white;"/>
            </g>
        </g>
    </g>
</svg>
